<svg version="1.1" id="Layer_1" xmlns="http://www.w3.org/2000/svg" xmlns:xlink="http://www.w3.org/1999/xlink" x="0px" y="0px"
	 width="100%" viewBox="0 0 600 600" enable-background="new 0 0 600 600" xml:space="preserve">
<path fill="#FFFFFF" opacity="1.000000" stroke="none" 
	d="
M601.000000,200.000000 
	C601.000000,334.000000 601.000000,467.500000 601.000000,601.000000 
	C401.000000,601.000000 201.000000,601.000000 1.000000,601.000000 
	C1.000000,401.000000 1.000000,201.000000 1.000000,1.000000 
	C201.000000,1.000000 401.000000,1.000000 601.000000,1.000000 
	C601.000000,67.166664 601.000000,133.333328 601.000000,200.000000 
M589.000000,437.500000 
	C589.000000,320.841797 589.012024,204.183624 588.958618,87.525444 
	C588.956360,82.568306 588.586975,77.582161 587.983521,72.659172 
	C583.791382,38.456257 552.782898,10.091599 516.993713,10.057055 
	C375.170929,9.920162 233.347870,9.990726 91.524940,10.041678 
	C86.567764,10.043460 81.581482,10.413099 76.658447,11.016540 
	C42.460079,15.208405 14.090652,46.214214 14.056968,82.006607 
	C13.921300,226.162582 13.990873,370.318756 14.041665,514.474854 
	C14.043411,519.431946 14.413110,524.418091 15.016486,529.341064 
	C19.207834,563.538147 50.211002,591.909363 86.006203,591.943359 
	C229.662201,592.080078 373.318451,592.031128 516.974426,591.891174 
	C523.025330,591.885254 529.253967,590.935730 535.094910,589.322083 
	C566.625305,580.611206 589.267578,551.454956 589.036804,517.993958 
	C588.854004,491.497131 589.000000,464.998077 589.000000,437.500000 
z"/>
<path fill="#E9ECEF" opacity="1.000000" stroke="none" 
	d="
M589.000000,438.000000 
	C589.000000,464.998077 588.854004,491.497131 589.036804,517.993958 
	C589.267578,551.454956 566.625305,580.611206 535.094910,589.322083 
	C529.253967,590.935730 523.025330,591.885254 516.974426,591.891174 
	C373.318451,592.031128 229.662201,592.080078 86.006203,591.943359 
	C50.211002,591.909363 19.207834,563.538147 15.016486,529.341064 
	C14.413110,524.418091 14.043411,519.431946 14.041665,514.474854 
	C13.990873,370.318756 13.921300,226.162582 14.056968,82.006607 
	C14.090652,46.214214 42.460079,15.208405 76.658447,11.016540 
	C81.581482,10.413099 86.567764,10.043460 91.524940,10.041678 
	C233.347870,9.990726 375.170929,9.920162 516.993713,10.057055 
	C552.782898,10.091599 583.791382,38.456257 587.983521,72.659172 
	C588.586975,77.582161 588.956360,82.568306 588.958618,87.525444 
	C589.012024,204.183624 589.000000,320.841797 589.000000,438.000000 
M285.095459,395.024628 
	C285.095459,433.590698 285.095459,472.156738 285.095459,511.312805 
	C269.533569,511.312805 254.499634,511.312805 239.556061,511.312805 
	C239.556061,519.829468 239.556061,527.748962 239.556061,535.934570 
	C281.764740,535.934570 323.642700,535.934570 365.944031,535.934570 
	C365.944031,528.957764 365.825531,521.990112 365.998596,515.029663 
	C366.074707,511.969025 365.016693,510.955292 361.965607,511.002319 
	C352.308929,511.151215 342.648529,511.057526 332.989563,511.057648 
	C327.391327,511.057709 321.793060,511.057678 316.038574,511.057678 
	C316.038574,471.676025 316.038574,432.901520 316.968811,394.053284 
	C383.983978,394.068237 450.999115,394.083160 517.780334,394.718933 
	C483.766449,433.765686 449.750000,472.810211 415.755798,511.874115 
	C415.022949,512.716187 414.049194,513.770325 414.028931,514.743164 
	C413.881256,521.824097 413.949463,528.909424 413.949463,535.878052 
	C460.834564,535.878052 506.942810,535.878052 553.373169,535.878052 
	C553.373169,527.562256 553.373169,519.498718 553.373169,511.003723 
	C520.928711,511.003723 488.718658,511.003723 456.043030,511.003723 
	C456.571381,510.102356 456.739014,509.679718 457.020325,509.355774 
	C479.184998,483.834076 501.379150,458.337921 523.522217,432.797455 
	C533.549072,421.232269 543.475830,409.580292 553.764709,397.782410 
	C553.926453,397.527344 553.885742,397.309906 553.682312,396.413330 
	C553.677429,395.696014 553.672485,394.978699 553.993164,393.866547 
	C554.030823,393.700195 554.068420,393.533813 554.449463,392.517761 
	C554.249939,381.309387 554.050354,370.100983 553.896606,357.970093 
	C553.880981,331.313416 554.181091,304.651855 553.771423,278.001221 
	C553.235291,243.123306 549.086548,208.724823 537.949097,175.448517 
	C525.281616,137.600998 505.240601,104.711334 473.479919,79.717407 
	C435.847717,50.102924 392.141174,36.462757 345.328125,31.027391 
	C318.796295,27.946836 292.210022,27.276459 265.535614,28.934153 
	C236.570862,30.734180 208.058121,34.929138 180.435181,44.092194 
	C133.348007,59.711906 96.392319,87.713417 73.328659,132.442871 
	C56.273689,165.519119 48.566025,201.173904 47.306198,237.943253 
	C45.926395,278.214294 46.572788,318.554718 46.071739,359.785553 
	C46.232338,370.962036 46.392937,382.138489 46.337143,393.839294 
	C46.311024,394.214233 46.284904,394.589142 46.028770,395.615631 
	C46.186611,396.488892 46.344448,397.362122 46.803635,398.923126 
	C64.275620,443.161377 81.771561,487.390228 99.161621,531.660645 
	C100.235703,534.394897 101.543640,535.485107 104.577744,535.410095 
	C113.402084,535.192017 122.239105,535.183411 131.062943,535.411072 
	C134.241287,535.492981 135.754807,534.448608 136.878662,531.497192 
	C141.242798,520.036133 145.879807,508.679291 150.387161,497.272614 
	C163.968155,462.903473 177.535950,428.529144 192.026581,394.053986 
	C223.030289,394.069763 254.034012,394.085571 285.095459,395.024628 
z"/>
<path fill="#075261" opacity="1.000000" stroke="none" 
	d="
M46.336166,358.864899 
	C46.572788,318.554718 45.926395,278.214294 47.306198,237.943253 
	C48.566025,201.173904 56.273689,165.519119 73.328659,132.442871 
	C96.392319,87.713417 133.348007,59.711906 180.435181,44.092194 
	C208.058121,34.929138 236.570862,30.734180 265.535614,28.934153 
	C292.210022,27.276459 318.796295,27.946836 345.328125,31.027391 
	C392.141174,36.462757 435.847717,50.102924 473.479919,79.717407 
	C505.240601,104.711334 525.281616,137.600998 537.949097,175.448517 
	C549.086548,208.724823 553.235291,243.123306 553.771423,278.001221 
	C554.181091,304.651855 553.880981,331.313416 553.416931,358.462524 
	C411.663818,358.971008 270.390381,358.984467 129.116959,359.005524 
	C101.795647,359.009613 74.474342,359.043549 46.962379,358.957550 
	C46.771725,358.851410 46.336166,358.864899 46.336166,358.864899 
M492.920532,290.500000 
	C493.086456,268.185608 492.660492,245.940170 488.131958,223.935059 
	C477.539886,172.466110 448.638641,136.286789 399.383514,116.985962 
	C373.885376,106.994415 347.188873,102.570107 320.020905,101.434151 
	C278.797882,99.710518 237.788376,101.341385 198.032135,114.015480 
	C160.204422,126.074760 131.898209,148.971649 117.370392,186.829468 
	C108.694740,209.437241 105.507263,233.145569 105.074425,257.198914 
	C104.693703,278.356415 104.967690,299.525818 104.975525,320.689941 
	C104.975990,321.954926 105.180496,323.219879 105.295181,324.544067 
	C123.740089,324.544067 141.830963,324.544067 160.169647,324.544067 
	C160.265549,323.573456 160.414093,322.786346 160.410645,321.999878 
	C160.333755,304.504486 160.159653,287.008911 160.212479,269.513977 
	C160.224091,265.672455 159.813751,263.012115 155.812149,260.811035 
	C150.369171,257.817078 149.419205,250.145126 152.872025,244.961533 
	C156.217911,239.938477 163.076797,238.215942 168.330994,241.079132 
	C173.853302,244.088470 176.194473,250.992020 173.318497,256.513214 
	C171.633530,259.747986 169.517929,262.758423 167.596039,265.869781 
	C166.997314,265.126617 166.398605,264.383423 165.799896,263.640259 
	C165.799896,283.888031 165.799896,304.135803 165.799896,324.441895 
	C174.135040,324.441895 181.875580,324.441895 189.607590,324.441895 
	C189.607590,314.504150 189.495178,304.869781 189.666504,295.240448 
	C189.729309,291.711182 189.207397,289.444305 185.529755,287.505646 
	C179.201233,284.169617 178.168335,275.833984 182.619278,270.242401 
	C186.843109,264.936127 194.892471,264.453674 199.889603,269.207245 
	C204.952728,274.023590 205.402710,282.729767 199.583725,286.218414 
	C194.555405,289.233032 194.725983,292.889618 194.803970,297.358368 
	C194.940598,305.188416 194.895798,313.021484 194.972687,320.852814 
	C194.984940,322.100983 195.235306,323.346832 195.360641,324.460815 
	C216.384659,324.460815 236.980011,324.460815 257.846344,324.460815 
	C257.846344,320.711121 257.534393,317.210083 257.925415,313.789368 
	C258.412903,309.524872 256.774170,306.661591 253.684616,303.900970 
	C247.351807,298.242432 241.454025,292.095734 235.099472,286.463287 
	C232.167435,283.864441 231.252426,281.057037 231.323898,277.282532 
	C231.524643,266.680603 231.393921,256.072418 231.393921,244.949615 
	C223.129181,244.949615 215.655975,244.703522 208.208939,245.038849 
	C203.491684,245.251266 201.847473,243.889771 201.893173,238.915146 
	C202.064575,220.257843 201.697281,201.596161 201.719208,182.936356 
	C201.723404,179.368622 201.301117,176.939682 197.537247,175.135315 
	C193.031189,172.975128 191.272675,167.312546 192.589172,162.680740 
	C194.133224,157.248352 198.413330,153.879669 203.864166,153.806702 
	C209.369095,153.733017 213.758896,156.947937 215.448212,162.290421 
	C216.889435,166.848297 215.060532,172.226059 210.997238,175.076782 
	C209.675430,176.004135 208.197357,176.708755 207.185760,177.288757 
	C207.185760,198.391632 207.185760,218.981888 207.185760,239.819946 
	C215.298126,239.819946 223.037537,239.819946 230.908966,239.819946 
	C230.908966,227.591568 230.908966,215.647064 230.908966,203.716354 
	C230.286179,203.416855 229.860352,203.202301 229.426682,203.004990 
	C223.568924,200.339767 220.449875,195.393585 221.324097,190.151215 
	C222.235855,184.683807 226.853699,180.370682 232.146057,180.043381 
	C237.877609,179.688919 242.531845,182.802124 244.409714,188.246536 
	C246.279694,193.668091 243.950027,198.612762 238.237671,202.546158 
	C237.000000,203.398361 236.059296,205.616074 236.065659,207.200485 
	C236.160202,230.689789 236.426041,254.178528 236.703278,277.666779 
	C236.718292,278.939209 236.754242,280.645142 237.519485,281.406769 
	C243.927307,287.784424 250.508209,293.988190 257.688904,300.869080 
	C257.688904,283.834656 257.622559,267.908661 257.742584,251.984055 
	C257.767792,248.635696 257.565887,246.325470 253.755997,244.697586 
	C248.860504,242.605820 246.837158,236.604477 248.183334,231.506271 
	C249.469971,226.633438 254.042633,223.125015 259.245422,223.018707 
	C264.592926,222.909470 269.360565,226.085434 270.844147,230.745209 
	C272.520111,236.009277 270.931519,241.621002 266.173615,244.298828 
	C263.148621,246.001358 262.687775,248.038361 262.709045,251.081894 
	C262.863953,273.243286 262.873322,295.405731 262.927124,317.567841 
	C262.932617,319.837524 262.927856,322.107208 262.927856,324.400757 
	C274.463196,324.400757 285.342316,324.400757 296.332916,324.400757 
	C296.436951,323.425262 296.567108,322.780823 296.565582,322.136688 
	C296.483337,287.311554 296.429657,252.486191 296.186646,217.662155 
	C296.173798,215.823425 294.967407,213.564270 293.601318,212.237244 
	C287.391174,206.204819 281.039459,200.304077 274.500610,194.630310 
	C271.362366,191.907242 269.869812,189.039810 270.027100,184.757690 
	C270.351105,175.937286 270.243561,167.093552 270.012604,158.267288 
	C269.972076,156.717545 268.849640,154.612320 267.567261,153.780533 
	C262.194092,150.295364 259.758972,145.466919 261.139801,139.901306 
	C262.351074,135.019150 267.412537,131.099899 272.550598,131.065567 
	C277.800171,131.030487 282.742340,134.791321 283.982513,139.764908 
	C285.420593,145.532104 283.155334,150.336868 277.836731,153.709778 
	C276.604248,154.491364 275.284729,156.274063 275.252167,157.626114 
	C275.027618,166.952972 275.090393,176.288223 275.186554,185.619492 
	C275.198975,186.826141 275.579590,188.396866 276.389771,189.170212 
	C284.038879,196.471527 291.818298,203.636383 299.691803,210.963120 
	C307.491516,203.698425 314.991333,196.854050 322.270477,189.782562 
	C323.373077,188.711411 323.872528,186.598618 323.929871,184.942673 
	C324.229584,176.285828 324.114380,167.611740 324.549225,158.964066 
	C324.690155,156.161606 324.462280,154.550354 321.684967,153.113983 
	C316.485474,150.424927 314.531647,145.056076 316.064484,139.520294 
	C317.375244,134.786484 322.191010,131.137390 327.220856,131.066589 
	C332.371490,130.994080 337.483429,134.784393 338.816711,139.664459 
	C340.280457,145.021988 338.124634,150.565857 332.971954,153.204224 
	C330.546692,154.446075 329.659454,155.779343 329.636078,158.460388 
	C329.554840,167.785324 329.387787,177.118591 328.836456,186.423996 
	C328.697449,188.770615 327.571320,191.593338 325.931183,193.224121 
	C318.729370,200.384903 311.123199,207.137222 303.795074,214.174561 
	C302.613678,215.309067 301.383057,217.135498 301.380463,218.644165 
	C301.332458,246.299469 301.474030,273.955048 301.561768,301.610626 
	C301.585876,309.206757 301.565430,316.803009 301.565430,324.491516 
	C313.296844,324.491516 324.207306,324.491516 335.273041,324.491516 
	C335.357025,323.608673 335.467529,322.970184 335.471344,322.331024 
	C335.611511,298.841003 335.690063,275.350464 335.931488,251.861526 
	C335.966064,248.497009 335.621216,246.236298 332.028595,244.496780 
	C326.875092,242.001511 325.111603,235.500107 327.255920,230.239426 
	C329.358459,225.081390 334.972565,222.101807 340.709900,223.098984 
	C345.927582,224.005859 349.874359,228.940384 349.994354,234.521469 
	C350.133026,240.970200 345.977966,244.244034 341.129486,246.501022 
	C341.129486,264.532440 341.129486,282.091309 341.129486,300.392761 
	C348.013458,293.891052 354.415192,287.908417 360.708496,281.813812 
	C361.430725,281.114349 361.890564,279.790924 361.894257,278.754730 
	C361.963318,259.278229 361.945068,239.801437 361.945068,220.205994 
	C357.260559,218.244446 353.664215,215.238617 353.051392,209.813995 
	C352.409607,204.132935 356.065247,198.612518 361.337158,197.096176 
	C367.014954,195.463120 373.091339,198.212616 375.559814,203.531799 
	C378.057678,208.914276 376.218597,214.846497 371.146240,218.402054 
	C369.686371,219.425369 367.552521,220.850983 367.454559,222.216125 
	C367.040985,227.978226 367.279449,233.787140 367.279449,239.700317 
	C375.402252,239.700317 383.271301,239.700317 391.515472,239.700317 
	C391.515472,218.677261 391.515472,198.053299 391.515472,177.227692 
	C391.058136,176.965454 390.338501,176.551910 389.618073,176.139786 
	C384.125610,172.997757 381.751862,167.892761 383.210236,162.358200 
	C384.520172,157.386902 389.420166,153.773636 394.802246,153.810287 
	C400.263947,153.847473 404.763916,157.368866 406.056549,162.617157 
	C407.476410,168.382065 405.340942,173.416641 399.518555,176.131668 
	C396.858643,177.372025 396.940369,179.033188 396.933228,181.196320 
	C396.869568,200.524933 396.682953,219.853775 396.755432,239.181717 
	C396.771393,243.436768 395.507141,245.194397 391.028992,245.029510 
	C383.249542,244.743118 375.451965,244.949936 366.961456,244.949936 
	C366.961456,256.307159 366.838654,267.088196 367.033020,277.863495 
	C367.094849,281.289825 366.222565,283.752899 363.607452,286.110413 
	C356.681091,292.354584 350.011047,298.885132 343.310730,305.375793 
	C342.300171,306.354736 341.043243,307.698059 340.980042,308.928284 
	C340.717926,314.031555 340.869965,319.156067 340.869965,324.499573 
	C362.223969,324.499573 383.298523,324.499573 405.052765,324.499573 
	C405.052765,314.309875 404.974365,304.363007 405.106293,294.418915 
	C405.140503,291.838684 404.554688,290.391052 402.020569,289.109650 
	C396.319458,286.226807 394.288116,279.883148 396.699432,274.235077 
	C398.768280,269.389221 403.406433,266.620789 408.691040,267.077423 
	C413.530579,267.495605 417.938782,271.285492 418.977234,275.920868 
	C420.147278,281.143585 418.307251,286.492462 413.655884,288.761047 
	C410.525452,290.287872 409.728668,292.167572 410.019318,295.289307 
	C410.234375,297.598816 409.981934,299.949677 409.978271,302.282166 
	C409.966644,309.696289 409.973999,317.110413 409.973999,324.543396 
	C418.318451,324.543396 425.926392,324.543396 433.580627,324.543396 
	C433.776855,323.917938 434.041260,323.465851 434.043304,323.012573 
	C434.129456,304.016174 434.248199,285.019379 434.138824,266.023895 
	C434.131042,264.676453 432.710632,262.911743 431.457336,262.071930 
	C426.553345,258.785828 424.141602,253.879974 425.446106,248.997513 
	C426.941681,243.400024 431.434174,239.879623 437.064117,239.893433 
	C442.674042,239.907166 447.212433,243.495712 448.651917,249.056000 
	C449.909912,253.915131 447.352386,258.894989 442.561371,262.138641 
	C441.134247,263.104889 439.743561,265.281586 439.694885,266.943481 
	C439.319427,279.762421 439.255615,292.590973 439.142609,305.416931 
	C439.087280,311.697357 439.133026,317.978638 439.133026,324.360474 
	C457.337280,324.360474 475.039917,324.360474 492.920502,324.360474 
	C492.920502,313.149811 492.920502,302.324921 492.920532,290.500000 
M332.405701,138.245377 
	C327.472137,134.969223 322.253113,135.733292 321.205200,140.439468 
	C320.672394,142.832428 321.711151,146.344025 323.329529,148.260529 
	C325.552795,150.893295 329.060455,150.600784 331.762421,148.196045 
	C334.778839,145.511398 335.042450,142.287003 332.405701,138.245377 
M404.462097,272.725891 
	C400.538330,275.097565 399.594025,278.463562 401.792145,282.360107 
	C403.499451,285.386536 406.309052,286.690643 409.785065,285.319855 
	C413.589417,283.819641 415.121826,280.813293 414.040649,276.990997 
	C412.793243,272.581116 409.486328,271.268646 404.462097,272.725891 
M193.140045,270.959747 
	C189.631042,270.528595 186.493637,271.659424 185.623260,275.068909 
	C185.062820,277.264282 185.543930,280.628479 186.965897,282.172028 
	C188.376099,283.702759 191.887085,284.609924 193.858276,283.948212 
	C195.885345,283.267792 198.629074,280.190918 198.429123,278.467987 
	C198.128036,275.874054 195.539444,273.545593 193.140045,270.959747 
M442.008240,256.384888 
	C445.189484,251.031677 443.515533,245.283813 438.293182,245.111359 
	C435.867188,245.031265 432.391357,246.763824 431.186523,248.758789 
	C430.140778,250.490326 430.810211,254.350357 432.172943,256.201141 
	C434.525696,259.396606 438.174286,259.007416 442.008240,256.384888 
M340.859894,228.238113 
	C334.467499,227.554337 329.880341,231.148972 331.695587,235.938736 
	C332.570496,238.247330 335.432098,240.879593 337.731964,241.246292 
	C339.733795,241.565460 343.027008,239.427704 344.294708,237.445297 
	C346.435760,234.097198 344.947632,230.832169 340.859894,228.238113 
M236.943115,197.528015 
	C237.868652,194.920120 239.757401,192.210037 239.494110,189.728271 
	C239.098724,186.001389 234.459396,184.006638 230.964447,185.186829 
	C227.656647,186.303818 225.493393,190.283844 226.446884,193.498352 
	C227.726288,197.811554 231.096848,199.327393 236.943115,197.528015 
M197.572403,163.247665 
	C196.184967,167.247879 197.818237,170.247009 201.329117,171.745621 
	C204.332413,173.027573 207.538818,172.567734 209.690048,169.486450 
	C211.963348,166.230301 211.244705,162.127472 208.024063,159.894012 
	C204.798904,157.657425 201.017548,158.644760 197.572403,163.247665 
M267.125427,138.876190 
	C265.159576,141.853302 264.955841,145.140610 267.640503,147.375229 
	C269.370117,148.814865 272.588104,149.854385 274.555878,149.231369 
	C276.542816,148.602295 278.848816,145.827164 279.101807,143.758240 
	C279.357086,141.670776 277.801636,138.660477 276.072876,137.193924 
	C273.385651,134.914322 270.190308,135.791275 267.125427,138.876190 
M253.391052,237.614807 
	C255.234634,240.553925 257.844055,242.592072 261.243774,241.132889 
	C263.243683,240.274506 265.656769,238.120331 265.984283,236.221298 
	C266.356262,234.064667 265.260925,230.676697 263.597839,229.421875 
	C261.927521,228.161621 258.498962,228.106628 256.332397,228.887360 
	C252.903610,230.122971 252.384781,233.472275 253.391052,237.614807 
M365.346100,215.164551 
	C370.237671,213.780319 372.393646,211.075592 371.515717,207.214218 
	C370.664093,203.468369 368.194336,201.408417 364.371643,201.644745 
	C360.573029,201.879578 358.139587,204.126114 358.002899,208.010300 
	C357.851196,212.320541 360.094574,214.847824 365.346100,215.164551 
M168.671066,247.982681 
	C165.983688,244.406189 162.574722,243.381088 158.792557,245.898026 
	C155.655914,247.985397 154.982925,251.176056 156.653915,254.589279 
	C158.537781,258.437286 162.088425,259.134399 165.476852,257.661621 
	C169.168976,256.056793 170.677673,252.769302 168.671066,247.982681 
M400.952972,162.581696 
	C399.177032,159.425980 396.282288,157.880539 393.030487,159.102386 
	C391.021271,159.857330 388.564697,162.094177 388.251953,163.986816 
	C387.894867,166.147583 389.052002,169.534317 390.739288,170.783630 
	C392.437500,172.041107 395.919525,172.136887 398.037933,171.288513 
	C401.250854,170.001801 402.256714,166.825333 400.952972,162.581696 
z"/>
<path fill="#FFC107" opacity="1.000000" stroke="none" 
	d="
M47.153030,359.063721 
	C74.474342,359.043549 101.795647,359.009613 129.116959,359.005524 
	C270.390381,358.984467 411.663818,358.971008 553.394043,358.923767 
	C554.050354,370.100983 554.249939,381.309387 553.928467,392.827271 
	C552.930603,393.179749 552.453674,393.222717 551.509888,393.264587 
	C540.176941,393.343781 529.310974,393.424072 517.961670,393.340851 
	C516.648438,393.125153 515.818420,393.027374 514.988403,393.027283 
	C449.878540,393.018707 384.768646,393.015625 319.658783,393.031494 
	C318.339172,393.031799 317.019653,393.259247 315.252991,393.338806 
	C304.971405,393.342285 295.136963,393.387726 284.827667,393.296387 
	C263.278076,393.120697 242.203262,393.044586 221.128540,393.059021 
	C211.014725,393.065918 200.901001,393.243866 190.333893,393.309631 
	C179.669128,393.333527 169.457703,393.392151 158.772125,393.334229 
	C133.111938,393.183167 107.925880,393.138428 82.739861,393.148529 
	C81.648888,393.148956 80.558113,393.653687 79.495010,393.912598 
	C79.522766,393.901703 79.481926,393.858276 79.197823,393.700378 
	C78.697205,393.551453 78.480698,393.560394 77.857826,393.445740 
	C67.320229,393.279877 57.188999,393.237610 47.010460,392.712280 
	C47.026447,381.174042 47.089737,370.118866 47.153030,359.063721 
z"/>
<path fill="#075261" opacity="1.000000" stroke="none" 
	d="
M47.057766,393.195343 
	C57.188999,393.237610 67.320229,393.279877 77.836266,393.721924 
	C78.438744,394.405029 78.656425,394.688354 78.950706,395.338562 
	C92.335098,431.494019 105.642899,467.282562 118.701599,502.401215 
	C131.661423,467.418304 144.894516,431.697662 158.347076,395.792908 
	C158.793121,394.889465 159.019714,394.170105 159.246277,393.450775 
	C169.457703,393.392151 179.669128,393.333527 190.362946,393.533020 
	C190.845352,393.791138 191.108887,394.156830 191.108887,394.156830 
	C177.535950,428.529144 163.968155,462.903473 150.387161,497.272614 
	C145.879807,508.679291 141.242798,520.036133 136.878662,531.497192 
	C135.754807,534.448608 134.241287,535.492981 131.062943,535.411072 
	C122.239105,535.183411 113.402084,535.192017 104.577744,535.410095 
	C101.543640,535.485107 100.235703,534.394897 99.161621,531.660645 
	C81.771561,487.390228 64.275620,443.161377 46.772514,398.249298 
	C46.580521,396.705017 46.419655,395.834534 46.258789,394.964081 
	C46.284904,394.589142 46.311024,394.214233 46.584541,393.602325 
	C46.831944,393.365356 47.057766,393.195343 47.057766,393.195343 
z"/>
<path fill="#075261" opacity="1.000000" stroke="none" 
	d="
M518.444946,393.504364 
	C529.310974,393.424072 540.176941,393.343781 551.674744,393.451019 
	C552.760193,393.846161 553.213867,394.053772 553.667542,394.261383 
	C553.672485,394.978699 553.677429,395.696014 553.516357,396.867462 
	C553.213745,397.562347 553.246216,397.777679 553.447937,397.967651 
	C543.475830,409.580292 533.549072,421.232269 523.522217,432.797455 
	C501.379150,458.337921 479.184998,483.834076 457.020325,509.355774 
	C456.739014,509.679718 456.571381,510.102356 456.043030,511.003723 
	C488.718658,511.003723 520.928711,511.003723 553.373169,511.003723 
	C553.373169,519.498718 553.373169,527.562256 553.373169,535.878052 
	C506.942810,535.878052 460.834564,535.878052 413.949463,535.878052 
	C413.949463,528.909424 413.881256,521.824097 414.028931,514.743164 
	C414.049194,513.770325 415.022949,512.716187 415.755798,511.874115 
	C449.750000,472.810211 483.766449,433.765686 518.055176,394.296143 
	C518.329956,393.873352 518.444946,393.504364 518.444946,393.504364 
z"/>
<path fill="#085261" opacity="1.000000" stroke="none" 
	d="
M285.302490,393.433167 
	C295.136963,393.387726 304.971405,393.342285 315.284424,393.549469 
	C315.763000,393.802094 316.038574,394.127014 316.038574,394.127014 
	C316.038574,432.901520 316.038574,471.676025 316.038574,511.057678 
	C321.793060,511.057678 327.391327,511.057709 332.989563,511.057648 
	C342.648529,511.057526 352.308929,511.151215 361.965607,511.002319 
	C365.016693,510.955292 366.074707,511.969025 365.998596,515.029663 
	C365.825531,521.990112 365.944031,528.957764 365.944031,535.934570 
	C323.642700,535.934570 281.764740,535.934570 239.556061,535.934570 
	C239.556061,527.748962 239.556061,519.829468 239.556061,511.312805 
	C254.499634,511.312805 269.533569,511.312805 285.095459,511.312805 
	C285.095459,472.156738 285.095459,433.590698 285.190552,394.418579 
	C285.285675,393.812500 285.302490,393.433197 285.302490,393.433167 
z"/>
<path fill="#91935A" opacity="1.000000" stroke="none" 
	d="
M316.503693,394.090149 
	C316.038574,394.127014 315.763000,393.802094 315.731537,393.591431 
	C317.019653,393.259247 318.339172,393.031799 319.658783,393.031494 
	C384.768646,393.015625 449.878540,393.018707 514.988403,393.027283 
	C515.818420,393.027374 516.648438,393.125153 517.961670,393.340851 
	C518.444946,393.504364 518.329956,393.873352 518.172119,393.985718 
	C450.999115,394.083160 383.983978,394.068237 316.503693,394.090149 
z"/>
<path fill="#838A51" opacity="1.000000" stroke="none" 
	d="
M284.827667,393.296387 
	C285.302490,393.433197 285.285675,393.812500 285.161682,393.956940 
	C254.034012,394.085571 223.030289,394.069763 191.567734,394.105408 
	C191.108887,394.156830 190.845352,393.791138 190.816299,393.567749 
	C200.901001,393.243866 211.014725,393.065918 221.128540,393.059021 
	C242.203262,393.044586 263.278076,393.120697 284.827667,393.296387 
z"/>
<path fill="#7C8E79" opacity="1.000000" stroke="none" 
	d="
M47.010460,392.712280 
	C47.057766,393.195343 46.831944,393.365356 46.692741,393.340149 
	C46.392937,382.138489 46.232338,370.962036 46.203953,359.325226 
	C46.336166,358.864899 46.771725,358.851410 46.962379,358.957581 
	C47.089737,370.118866 47.026447,381.174042 47.010460,392.712280 
z"/>
<path fill="#7C8E79" opacity="1.000000" stroke="none" 
	d="
M46.143780,395.289856 
	C46.419655,395.834534 46.580521,396.705017 46.621841,397.905426 
	C46.344448,397.362122 46.186611,396.488892 46.143780,395.289856 
z"/>
<path fill="#91935A" opacity="1.000000" stroke="none" 
	d="
M553.830322,394.063965 
	C553.213867,394.053772 552.760193,393.846161 552.141663,393.452087 
	C552.453674,393.222717 552.930603,393.179749 553.756775,393.252136 
	C554.068420,393.533813 554.030823,393.700195 553.830322,394.063965 
z"/>
<path fill="#91935A" opacity="1.000000" stroke="none" 
	d="
M553.606323,397.875031 
	C553.246216,397.777679 553.213745,397.562347 553.496460,397.225891 
	C553.885742,397.309906 553.926453,397.527344 553.606323,397.875031 
z"/>
<path fill="#E8EBEE" opacity="1.000000" stroke="none" 
	d="
M492.920532,291.000000 
	C492.920502,302.324921 492.920502,313.149811 492.920502,324.360474 
	C475.039917,324.360474 457.337280,324.360474 439.133026,324.360474 
	C439.133026,317.978638 439.087280,311.697357 439.142609,305.416931 
	C439.255615,292.590973 439.319427,279.762421 439.694885,266.943481 
	C439.743561,265.281586 441.134247,263.104889 442.561371,262.138641 
	C447.352386,258.894989 449.909912,253.915131 448.651917,249.056000 
	C447.212433,243.495712 442.674042,239.907166 437.064117,239.893433 
	C431.434174,239.879623 426.941681,243.400024 425.446106,248.997513 
	C424.141602,253.879974 426.553345,258.785828 431.457336,262.071930 
	C432.710632,262.911743 434.131042,264.676453 434.138824,266.023895 
	C434.248199,285.019379 434.129456,304.016174 434.043304,323.012573 
	C434.041260,323.465851 433.776855,323.917938 433.580627,324.543396 
	C425.926392,324.543396 418.318451,324.543396 409.973999,324.543396 
	C409.973999,317.110413 409.966644,309.696289 409.978271,302.282166 
	C409.981934,299.949677 410.234375,297.598816 410.019318,295.289307 
	C409.728668,292.167572 410.525452,290.287872 413.655884,288.761047 
	C418.307251,286.492462 420.147278,281.143585 418.977234,275.920868 
	C417.938782,271.285492 413.530579,267.495605 408.691040,267.077423 
	C403.406433,266.620789 398.768280,269.389221 396.699432,274.235077 
	C394.288116,279.883148 396.319458,286.226807 402.020569,289.109650 
	C404.554688,290.391052 405.140503,291.838684 405.106293,294.418915 
	C404.974365,304.363007 405.052765,314.309875 405.052765,324.499573 
	C383.298523,324.499573 362.223969,324.499573 340.869965,324.499573 
	C340.869965,319.156067 340.717926,314.031555 340.980042,308.928284 
	C341.043243,307.698059 342.300171,306.354736 343.310730,305.375793 
	C350.011047,298.885132 356.681091,292.354584 363.607452,286.110413 
	C366.222565,283.752899 367.094849,281.289825 367.033020,277.863495 
	C366.838654,267.088196 366.961456,256.307159 366.961456,244.949936 
	C375.451965,244.949936 383.249542,244.743118 391.028992,245.029510 
	C395.507141,245.194397 396.771393,243.436768 396.755432,239.181717 
	C396.682953,219.853775 396.869568,200.524933 396.933228,181.196320 
	C396.940369,179.033188 396.858643,177.372025 399.518555,176.131668 
	C405.340942,173.416641 407.476410,168.382065 406.056549,162.617157 
	C404.763916,157.368866 400.263947,153.847473 394.802246,153.810287 
	C389.420166,153.773636 384.520172,157.386902 383.210236,162.358200 
	C381.751862,167.892761 384.125610,172.997757 389.618073,176.139786 
	C390.338501,176.551910 391.058136,176.965454 391.515472,177.227692 
	C391.515472,198.053299 391.515472,218.677261 391.515472,239.700317 
	C383.271301,239.700317 375.402252,239.700317 367.279449,239.700317 
	C367.279449,233.787140 367.040985,227.978226 367.454559,222.216125 
	C367.552521,220.850983 369.686371,219.425369 371.146240,218.402054 
	C376.218597,214.846497 378.057678,208.914276 375.559814,203.531799 
	C373.091339,198.212616 367.014954,195.463120 361.337158,197.096176 
	C356.065247,198.612518 352.409607,204.132935 353.051392,209.813995 
	C353.664215,215.238617 357.260559,218.244446 361.945068,220.205994 
	C361.945068,239.801437 361.963318,259.278229 361.894257,278.754730 
	C361.890564,279.790924 361.430725,281.114349 360.708496,281.813812 
	C354.415192,287.908417 348.013458,293.891052 341.129486,300.392761 
	C341.129486,282.091309 341.129486,264.532440 341.129486,246.501022 
	C345.977966,244.244034 350.133026,240.970200 349.994354,234.521469 
	C349.874359,228.940384 345.927582,224.005859 340.709900,223.098984 
	C334.972565,222.101807 329.358459,225.081390 327.255920,230.239426 
	C325.111603,235.500107 326.875092,242.001511 332.028595,244.496780 
	C335.621216,246.236298 335.966064,248.497009 335.931488,251.861526 
	C335.690063,275.350464 335.611511,298.841003 335.471344,322.331024 
	C335.467529,322.970184 335.357025,323.608673 335.273041,324.491516 
	C324.207306,324.491516 313.296844,324.491516 301.565430,324.491516 
	C301.565430,316.803009 301.585876,309.206757 301.561768,301.610626 
	C301.474030,273.955048 301.332458,246.299469 301.380463,218.644165 
	C301.383057,217.135498 302.613678,215.309067 303.795074,214.174561 
	C311.123199,207.137222 318.729370,200.384903 325.931183,193.224121 
	C327.571320,191.593338 328.697449,188.770615 328.836456,186.423996 
	C329.387787,177.118591 329.554840,167.785324 329.636078,158.460388 
	C329.659454,155.779343 330.546692,154.446075 332.971954,153.204224 
	C338.124634,150.565857 340.280457,145.021988 338.816711,139.664459 
	C337.483429,134.784393 332.371490,130.994080 327.220856,131.066589 
	C322.191010,131.137390 317.375244,134.786484 316.064484,139.520294 
	C314.531647,145.056076 316.485474,150.424927 321.684967,153.113983 
	C324.462280,154.550354 324.690155,156.161606 324.549225,158.964066 
	C324.114380,167.611740 324.229584,176.285828 323.929871,184.942673 
	C323.872528,186.598618 323.373077,188.711411 322.270477,189.782562 
	C314.991333,196.854050 307.491516,203.698425 299.691803,210.963120 
	C291.818298,203.636383 284.038879,196.471527 276.389771,189.170212 
	C275.579590,188.396866 275.198975,186.826141 275.186554,185.619492 
	C275.090393,176.288223 275.027618,166.952972 275.252167,157.626114 
	C275.284729,156.274063 276.604248,154.491364 277.836731,153.709778 
	C283.155334,150.336868 285.420593,145.532104 283.982513,139.764908 
	C282.742340,134.791321 277.800171,131.030487 272.550598,131.065567 
	C267.412537,131.099899 262.351074,135.019150 261.139801,139.901306 
	C259.758972,145.466919 262.194092,150.295364 267.567261,153.780533 
	C268.849640,154.612320 269.972076,156.717545 270.012604,158.267288 
	C270.243561,167.093552 270.351105,175.937286 270.027100,184.757690 
	C269.869812,189.039810 271.362366,191.907242 274.500610,194.630310 
	C281.039459,200.304077 287.391174,206.204819 293.601318,212.237244 
	C294.967407,213.564270 296.173798,215.823425 296.186646,217.662155 
	C296.429657,252.486191 296.483337,287.311554 296.565582,322.136688 
	C296.567108,322.780823 296.436951,323.425262 296.332916,324.400757 
	C285.342316,324.400757 274.463196,324.400757 262.927856,324.400757 
	C262.927856,322.107208 262.932617,319.837524 262.927124,317.567841 
	C262.873322,295.405731 262.863953,273.243286 262.709045,251.081894 
	C262.687775,248.038361 263.148621,246.001358 266.173615,244.298828 
	C270.931519,241.621002 272.520111,236.009277 270.844147,230.745209 
	C269.360565,226.085434 264.592926,222.909470 259.245422,223.018707 
	C254.042633,223.125015 249.469971,226.633438 248.183334,231.506271 
	C246.837158,236.604477 248.860504,242.605820 253.755997,244.697586 
	C257.565887,246.325470 257.767792,248.635696 257.742584,251.984055 
	C257.622559,267.908661 257.688904,283.834656 257.688904,300.869080 
	C250.508209,293.988190 243.927307,287.784424 237.519485,281.406769 
	C236.754242,280.645142 236.718292,278.939209 236.703278,277.666779 
	C236.426041,254.178528 236.160202,230.689789 236.065659,207.200485 
	C236.059296,205.616074 237.000000,203.398361 238.237671,202.546158 
	C243.950027,198.612762 246.279694,193.668091 244.409714,188.246536 
	C242.531845,182.802124 237.877609,179.688919 232.146057,180.043381 
	C226.853699,180.370682 222.235855,184.683807 221.324097,190.151215 
	C220.449875,195.393585 223.568924,200.339767 229.426682,203.004990 
	C229.860352,203.202301 230.286179,203.416855 230.908966,203.716354 
	C230.908966,215.647064 230.908966,227.591568 230.908966,239.819946 
	C223.037537,239.819946 215.298126,239.819946 207.185760,239.819946 
	C207.185760,218.981888 207.185760,198.391632 207.185760,177.288757 
	C208.197357,176.708755 209.675430,176.004135 210.997238,175.076782 
	C215.060532,172.226059 216.889435,166.848297 215.448212,162.290421 
	C213.758896,156.947937 209.369095,153.733017 203.864166,153.806702 
	C198.413330,153.879669 194.133224,157.248352 192.589172,162.680740 
	C191.272675,167.312546 193.031189,172.975128 197.537247,175.135315 
	C201.301117,176.939682 201.723404,179.368622 201.719208,182.936356 
	C201.697281,201.596161 202.064575,220.257843 201.893173,238.915146 
	C201.847473,243.889771 203.491684,245.251266 208.208939,245.038849 
	C215.655975,244.703522 223.129181,244.949615 231.393921,244.949615 
	C231.393921,256.072418 231.524643,266.680603 231.323898,277.282532 
	C231.252426,281.057037 232.167435,283.864441 235.099472,286.463287 
	C241.454025,292.095734 247.351807,298.242432 253.684616,303.900970 
	C256.774170,306.661591 258.412903,309.524872 257.925415,313.789368 
	C257.534393,317.210083 257.846344,320.711121 257.846344,324.460815 
	C236.980011,324.460815 216.384659,324.460815 195.360641,324.460815 
	C195.235306,323.346832 194.984940,322.100983 194.972687,320.852814 
	C194.895798,313.021484 194.940598,305.188416 194.803970,297.358368 
	C194.725983,292.889618 194.555405,289.233032 199.583725,286.218414 
	C205.402710,282.729767 204.952728,274.023590 199.889603,269.207245 
	C194.892471,264.453674 186.843109,264.936127 182.619278,270.242401 
	C178.168335,275.833984 179.201233,284.169617 185.529755,287.505646 
	C189.207397,289.444305 189.729309,291.711182 189.666504,295.240448 
	C189.495178,304.869781 189.607590,314.504150 189.607590,324.441895 
	C181.875580,324.441895 174.135040,324.441895 165.799896,324.441895 
	C165.799896,304.135803 165.799896,283.888031 165.799896,263.640259 
	C166.398605,264.383423 166.997314,265.126617 167.596039,265.869781 
	C169.517929,262.758423 171.633530,259.747986 173.318497,256.513214 
	C176.194473,250.992020 173.853302,244.088470 168.330994,241.079132 
	C163.076797,238.215942 156.217911,239.938477 152.872025,244.961533 
	C149.419205,250.145126 150.369171,257.817078 155.812149,260.811035 
	C159.813751,263.012115 160.224091,265.672455 160.212479,269.513977 
	C160.159653,287.008911 160.333755,304.504486 160.410645,321.999878 
	C160.414093,322.786346 160.265549,323.573456 160.169647,324.544067 
	C141.830963,324.544067 123.740089,324.544067 105.295181,324.544067 
	C105.180496,323.219879 104.975990,321.954926 104.975525,320.689941 
	C104.967690,299.525818 104.693703,278.356415 105.074425,257.198914 
	C105.507263,233.145569 108.694740,209.437241 117.370392,186.829468 
	C131.898209,148.971649 160.204422,126.074760 198.032135,114.015480 
	C237.788376,101.341385 278.797882,99.710518 320.020905,101.434151 
	C347.188873,102.570107 373.885376,106.994415 399.383514,116.985962 
	C448.638641,136.286789 477.539886,172.466110 488.131958,223.935059 
	C492.660492,245.940170 493.086456,268.185608 492.920532,291.000000 
z"/>
<path fill="#F5C109" opacity="1.000000" stroke="none" 
	d="
M332.653564,138.557465 
	C335.042450,142.287003 334.778839,145.511398 331.762421,148.196045 
	C329.060455,150.600784 325.552795,150.893295 323.329529,148.260529 
	C321.711151,146.344025 320.672394,142.832428 321.205200,140.439468 
	C322.253113,135.733292 327.472137,134.969223 332.653564,138.557465 
z"/>
<path fill="#F9C307" opacity="1.000000" stroke="none" 
	d="
M404.805450,272.522583 
	C409.486328,271.268646 412.793243,272.581116 414.040649,276.990997 
	C415.121826,280.813293 413.589417,283.819641 409.785065,285.319855 
	C406.309052,286.690643 403.499451,285.386536 401.792145,282.360107 
	C399.594025,278.463562 400.538330,275.097565 404.805450,272.522583 
z"/>
<path fill="#F6C208" opacity="1.000000" stroke="none" 
	d="
M193.531677,271.032013 
	C195.539444,273.545593 198.128036,275.874054 198.429123,278.467987 
	C198.629074,280.190918 195.885345,283.267792 193.858276,283.948212 
	C191.887085,284.609924 188.376099,283.702759 186.965897,282.172028 
	C185.543930,280.628479 185.062820,277.264282 185.623260,275.068909 
	C186.493637,271.659424 189.631042,270.528595 193.531677,271.032013 
z"/>
<path fill="#F7C208" opacity="1.000000" stroke="none" 
	d="
M441.742676,256.652893 
	C438.174286,259.007416 434.525696,259.396606 432.172943,256.201141 
	C430.810211,254.350357 430.140778,250.490326 431.186523,248.758789 
	C432.391357,246.763824 435.867188,245.031265 438.293182,245.111359 
	C443.515533,245.283813 445.189484,251.031677 441.742676,256.652893 
z"/>
<path fill="#F8C308" opacity="1.000000" stroke="none" 
	d="
M341.201294,228.453186 
	C344.947632,230.832169 346.435760,234.097198 344.294708,237.445297 
	C343.027008,239.427704 339.733795,241.565460 337.731964,241.246292 
	C335.432098,240.879593 332.570496,238.247330 331.695587,235.938736 
	C329.880341,231.148972 334.467499,227.554337 341.201294,228.453186 
z"/>
<path fill="#F7C208" opacity="1.000000" stroke="none" 
	d="
M236.618103,197.727219 
	C231.096848,199.327393 227.726288,197.811554 226.446884,193.498352 
	C225.493393,190.283844 227.656647,186.303818 230.964447,185.186829 
	C234.459396,184.006638 239.098724,186.001389 239.494110,189.728271 
	C239.757401,192.210037 237.868652,194.920120 236.618103,197.727219 
z"/>
<path fill="#F7C208" opacity="1.000000" stroke="none" 
	d="
M197.739716,162.891663 
	C201.017548,158.644760 204.798904,157.657425 208.024063,159.894012 
	C211.244705,162.127472 211.963348,166.230301 209.690048,169.486450 
	C207.538818,172.567734 204.332413,173.027573 201.329117,171.745621 
	C197.818237,170.247009 196.184967,167.247879 197.739716,162.891663 
z"/>
<path fill="#F6C208" opacity="1.000000" stroke="none" 
	d="
M267.375122,138.568008 
	C270.190308,135.791275 273.385651,134.914322 276.072876,137.193924 
	C277.801636,138.660477 279.357086,141.670776 279.101807,143.758240 
	C278.848816,145.827164 276.542816,148.602295 274.555878,149.231369 
	C272.588104,149.854385 269.370117,148.814865 267.640503,147.375229 
	C264.955841,145.140610 265.159576,141.853302 267.375122,138.568008 
z"/>
<path fill="#F9C307" opacity="1.000000" stroke="none" 
	d="
M253.234589,237.248276 
	C252.384781,233.472275 252.903610,230.122971 256.332397,228.887360 
	C258.498962,228.106628 261.927521,228.161621 263.597839,229.421875 
	C265.260925,230.676697 266.356262,234.064667 265.984283,236.221298 
	C265.656769,238.120331 263.243683,240.274506 261.243774,241.132889 
	C257.844055,242.592072 255.234634,240.553925 253.234589,237.248276 
z"/>
<path fill="#FAC407" opacity="1.000000" stroke="none" 
	d="
M364.941040,215.166656 
	C360.094574,214.847824 357.851196,212.320541 358.002899,208.010300 
	C358.139587,204.126114 360.573029,201.879578 364.371643,201.644745 
	C368.194336,201.408417 370.664093,203.468369 371.515717,207.214218 
	C372.393646,211.075592 370.237671,213.780319 364.941040,215.166656 
z"/>
<path fill="#FBC407" opacity="1.000000" stroke="none" 
	d="
M168.840179,248.314529 
	C170.677673,252.769302 169.168976,256.056793 165.476852,257.661621 
	C162.088425,259.134399 158.537781,258.437286 156.653915,254.589279 
	C154.982925,251.176056 155.655914,247.985397 158.792557,245.898026 
	C162.574722,243.381088 165.983688,244.406189 168.840179,248.314529 
z"/>
<path fill="#FAC407" opacity="1.000000" stroke="none" 
	d="
M401.050049,162.949234 
	C402.256714,166.825333 401.250854,170.001801 398.037933,171.288513 
	C395.919525,172.136887 392.437500,172.041107 390.739288,170.783630 
	C389.052002,169.534317 387.894867,166.147583 388.251953,163.986816 
	C388.564697,162.094177 391.021271,159.857330 393.030487,159.102386 
	C396.282288,157.880539 399.177032,159.425980 401.050049,162.949234 
z"/>
<path fill="#E8EBEE" opacity="1.000000" stroke="none" 
	d="
M158.127625,395.977051 
	C144.894516,431.697662 131.661423,467.418304 118.701599,502.401215 
	C105.642899,467.282562 92.335098,431.494019 79.097855,395.058105 
	C79.272903,394.226562 79.377411,394.042419 79.481926,393.858276 
	C79.481926,393.858276 79.522766,393.901703 80.007370,393.952118 
	C104.775406,394.017273 129.059036,393.995697 153.341812,394.129486 
	C154.940430,394.138306 156.532501,395.333618 158.127625,395.977051 
z"/>
<path fill="#7C8E79" opacity="1.000000" stroke="none" 
	d="
M158.347076,395.792908 
	C156.532501,395.333618 154.940430,394.138306 153.341812,394.129486 
	C129.059036,393.995697 104.775406,394.017273 79.979614,393.963013 
	C80.558113,393.653687 81.648888,393.148956 82.739861,393.148529 
	C107.925880,393.138428 133.111938,393.183167 158.772125,393.334229 
	C159.019714,394.170105 158.793121,394.889465 158.347076,395.792908 
z"/>
<path fill="#7C8E79" opacity="1.000000" stroke="none" 
	d="
M79.197823,393.700378 
	C79.377411,394.042419 79.272903,394.226562 79.021255,394.691193 
	C78.656425,394.688354 78.438744,394.405029 78.242630,393.845520 
	C78.480698,393.560394 78.697205,393.551453 79.197823,393.700378 
z"/>
</svg>